<mxfile host="65bd71144e">
    <diagram id="EaNI7bdZGe-YyNRJ3pEJ" name="Page-1">
        <mxGraphModel dx="390" dy="441" grid="1" gridSize="10" guides="1" tooltips="1" connect="1" arrows="1" fold="1" page="1" pageScale="1" pageWidth="850" pageHeight="1100" math="0" shadow="0">
            <root>
                <mxCell id="0"/>
                <mxCell id="1" parent="0"/>
                <mxCell id="4" value="LEFT" style="ellipse;whiteSpace=wrap;html=1;aspect=fixed;fillColor=#1ba1e2;fontColor=#000000;strokeColor=#006EAF;opacity=50;" vertex="1" parent="1">
                    <mxGeometry x="20" y="50" width="80" height="80" as="geometry"/>
                </mxCell>
                <mxCell id="5" value="RIGHT" style="ellipse;whiteSpace=wrap;html=1;aspect=fixed;fillColor=#fff2cc;strokeColor=#d6b656;opacity=50;fontColor=#000000;" vertex="1" parent="1">
                    <mxGeometry x="140" y="50" width="80" height="80" as="geometry"/>
                </mxCell>
                <mxCell id="7" value="&lt;h1&gt;LEFT E RIGHT&lt;/h1&gt;&lt;div&gt;Ao selecionar uma tabela para uma&amp;nbsp; relação inicial (select * from TABELA) entenda essa como a tabela da esquerda (left). A tabela a ser associada (JOIN TABELA), será a da direita (RIGHT)&lt;/div&gt;" style="text;html=1;strokeColor=none;fillColor=none;spacing=5;spacingTop=-20;whiteSpace=wrap;overflow=hidden;rounded=0;fontSize=11;fontColor=#FFFFFF;opacity=50;" vertex="1" parent="1">
                    <mxGeometry x="260" y="30" width="230" height="120" as="geometry"/>
                </mxCell>
                <mxCell id="8" value="LEFT" style="ellipse;whiteSpace=wrap;html=1;aspect=fixed;fillColor=#1ba1e2;fontColor=#000000;strokeColor=#006EAF;opacity=50;" vertex="1" parent="1">
                    <mxGeometry x="40" y="150" width="100" height="100" as="geometry"/>
                </mxCell>
                <mxCell id="9" value="RIGHT" style="ellipse;whiteSpace=wrap;html=1;aspect=fixed;fillColor=#fff2cc;strokeColor=#d6b656;opacity=50;fontColor=#000000;" vertex="1" parent="1">
                    <mxGeometry x="110" y="150" width="100" height="100" as="geometry"/>
                </mxCell>
                <mxCell id="12" value="INNER" style="text;strokeColor=none;align=center;fillColor=none;html=1;verticalAlign=middle;whiteSpace=wrap;rounded=0;fontSize=9;fontColor=#FFFFFF;opacity=50;" vertex="1" parent="1">
                    <mxGeometry x="90" y="185" width="60" height="30" as="geometry"/>
                </mxCell>
                <mxCell id="13" value="&lt;h1&gt;&lt;span style=&quot;background-color: initial;&quot;&gt;INNER JOIN&lt;/span&gt;&lt;/h1&gt;&lt;h1&gt;&lt;span style=&quot;background-color: initial; font-size: 9px; font-weight: normal;&quot;&gt;Lorem ipsum dolor sit amet, consectetur adipisicing elit, sed do eiusmod tempor incididunt ut labore et dolore magna aliqua.&lt;/span&gt;&lt;br&gt;&lt;/h1&gt;" style="text;html=1;strokeColor=none;fillColor=none;spacing=5;spacingTop=-20;whiteSpace=wrap;overflow=hidden;rounded=0;fontSize=9;fontColor=#FFFFFF;opacity=50;" vertex="1" parent="1">
                    <mxGeometry x="260" y="160" width="190" height="120" as="geometry"/>
                </mxCell>
            </root>
        </mxGraphModel>
    </diagram>
</mxfile>